<svg xmlns="http://www.w3.org/2000/svg" width="150" height="50" viewBox="0,0,150,50"><path d="M6 7 C67 39,91 21,139 46" stroke="#333" fill="none"/><path fill="#333" d="M56.52 19.70L56.50 19.68L56.48 19.66Q54.53 19.79 53.57 19.95L53.64 20.01L53.59 19.96Q51.93 20.17 50.71 20.70L50.76 20.75L50.73 20.72Q47.27 22.21 47.16 26.89L47.07 26.80L47.16 26.89Q46.96 29.43 47.60 32.36L47.76 32.52L47.58 32.34Q48.45 36.37 52.06 37.55L52.12 37.61L52.19 37.68Q54.01 38.16 55.45 38.00L55.57 38.12L55.95 38.04L55.85 37.94Q56.05 37.95 56.24 37.99L56.34 38.09L56.38 38.13Q56.49 38.08 56.64 38.05L56.53 37.94L56.56 37.97Q59.33 37.85 60.70 37.28L60.60 37.17L57.02 33.63L56.97 33.58Q57.34 33.30 57.95 32.69L57.89 32.64L58.88 31.80L58.86 31.78Q60.73 33.87 62.70 35.93L62.79 36.01L62.67 35.89Q65.06 34.13 65.33 28.77L65.35 28.79L65.20 28.64Q65.31 27.76 65.31 26.84L65.28 26.81L65.34 26.87Q65.41 21.28 60.35 20.17L60.24 20.07L60.36 20.18Q58.96 19.77 56.44 19.62ZM69.22 41.68L69.28 41.74L69.33 41.79Q68.67 42.16 67.49 43.04L67.50 43.04L63.06 39.33L63.15 39.42Q60.55 40.51 56.29 40.55L56.40 40.66L56.27 40.53Q49.83 40.76 47.02 38.51L46.99 38.49L47.07 38.57Q45.15 36.64 44.69 33.67L44.75 33.74L44.64 33.63Q44.51 31.90 44.13 28.32L44.12 28.31L44.07 28.26Q44.17 27.64 44.06 25.89L44.13 25.95L44.04 25.87Q43.87 24.29 43.91 23.42L44.00 23.51L44.00 23.50Q44.08 20.43 45.84 18.87L45.70 18.73L45.85 18.89Q47.22 17.40 50.42 16.91L50.46 16.94L50.60 17.09Q53.01 16.64 55.91 16.72L55.79 16.60L55.85 16.66Q63.32 16.75 66.45 19.11L66.53 19.19L66.43 19.09Q68.63 21.26 68.36 26.17L68.45 26.26L68.36 26.17Q68.28 29.93 68.09 31.27L68.09 31.27L68.04 31.21Q67.37 35.68 65.05 38.00L65.15 38.10L65.02 37.98Q66.47 39.20 69.21 41.68ZM64.35 17.39L64.41 17.46L64.45 17.49Q62.32 16.67 55.81 16.17L55.79 16.15L55.97 16.32Q54.59 16.35 51.81 16.46L51.71 16.37L51.80 16.45Q47.59 16.70 45.34 18.68L45.23 18.57L45.24 18.58Q43.68 20.14 43.68 23.30L43.50 23.12L43.57 23.18Q43.62 24.07 43.77 25.79L43.66 25.68L43.77 25.78Q43.85 27.43 43.85 28.31L43.87 28.32L43.86 28.31Q44.00 30.05 44.38 33.63L44.41 33.66L44.48 33.73Q44.72 36.48 46.31 38.53L46.36 38.58L46.29 38.51Q46.76 39.48 47.98 40.62L48.01 40.65L47.88 40.52Q50.61 42.52 55.79 42.79L55.78 42.78L55.80 42.80Q56.13 42.80 58.53 42.91L58.61 42.99L58.56 42.94Q63.42 43.15 65.70 42.08L65.60 41.98L65.73 42.12Q66.50 42.70 71.22 46.27L71.26 46.31L71.25 46.30Q71.82 45.73 73.12 44.74L73.15 44.77L73.09 44.71Q72.36 44.17 71.56 43.48L71.46 43.39L69.78 41.90L69.93 41.90L69.89 41.86Q69.27 41.35 68.05 40.32L68.17 40.44L68.05 40.32Q70.08 37.94 70.08 33.41L69.97 33.30L70.14 33.47Q70.12 33.02 70.16 32.19L70.04 32.07L70.09 32.12Q70.09 31.24 70.09 30.82L70.16 30.90L70.16 30.90Q70.19 25.41 69.47 23.05L69.47 23.05L69.43 23.01Q68.99 21.66 68.12 20.59L68.17 20.65L68.23 20.71Q67.41 18.55 64.48 17.52ZM58.36 21.99L58.47 22.10L58.50 22.13Q62.46 21.94 64.28 23.53L64.28 23.53L64.28 23.53Q64.85 24.75 64.96 26.08L65.06 26.18L65.01 26.13Q64.99 27.29 64.92 28.66L64.89 28.64L64.94 28.69Q64.64 33.68 62.70 35.39L62.70 35.39L62.71 35.40Q61.50 34.19 58.99 31.45L58.89 31.35L58.99 31.46Q58.14 32.13 56.58 33.69L56.47 33.57L56.44 33.54Q57.04 34.18 58.18 35.36L58.16 35.34L58.09 35.38L58.24 35.54Q58.69 35.95 59.72 37.01L59.71 37.00L59.85 37.15Q58.78 37.34 56.46 37.64L56.40 37.58L55.95 37.67L55.54 37.67L55.44 37.61L55.58 37.75Q51.99 37.63 50.01 35.99L49.97 35.94L50.13 36.11Q49.11 34.02 49.15 30.90L49.10 30.85L49.12 30.88Q49.23 22.11 58.40 22.03Z"/><path fill="#333" d="M121.18 40.87L121.29 40.99L121.21 40.90Q119.94 39.26 118.65 36.17L118.65 36.18L116.48 31.00L116.53 31.04Q114.88 35.00 114.27 36.29L114.41 36.42L114.37 36.39Q112.79 39.18 111.19 41.09L111.18 41.08L111.37 41.27Q110.95 41.23 110.19 41.35L110.13 41.29L110.19 41.34Q110.20 33.93 104.37 27.99L104.34 27.96L104.30 27.91Q102.50 26.04 100.48 24.55L100.61 24.69L100.56 24.64Q102.42 25.20 104.29 25.50L104.34 25.56L104.34 25.56Q110.32 30.44 111.77 36.68L111.71 36.62L111.82 36.73Q112.73 34.90 113.91 31.70L113.84 31.63L113.83 31.62Q115.22 27.91 115.79 26.62L115.70 26.53L117.26 26.68L117.15 26.57Q117.97 28.23 119.15 31.50L119.16 31.50L119.26 31.61Q120.47 35.14 121.11 36.55L121.18 36.61L121.16 36.60Q122.95 30.27 128.43 25.70L128.46 25.73L128.54 25.81Q129.69 25.67 132.43 25.10L132.39 25.05L132.41 25.08Q123.79 31.11 122.61 41.08L122.51 40.98L121.93 40.94L122.00 41.01Q121.57 40.88 121.22 40.92ZM124.21 43.37L126.41 43.71L126.25 43.55Q125.89 41.97 125.89 40.45L126.02 40.58L126.04 40.60Q125.88 37.20 127.29 33.97L127.39 34.07L127.39 34.06Q129.37 29.54 133.48 26.45L133.57 26.54L133.38 26.35Q132.18 26.63 130.31 26.98L130.42 27.09L130.38 27.05Q132.39 25.44 133.69 24.53L133.71 24.55L131.21 25.02L131.14 24.95Q129.97 25.23 128.64 25.38L128.66 25.40L128.61 25.35Q123.33 29.47 121.39 34.50L121.42 34.53L121.42 34.53Q120.76 32.34 119.39 28.08L119.56 28.26L119.43 28.13Q119.13 28.16 118.86 28.16L118.80 28.11L118.35 28.19L118.33 28.16Q118.24 27.88 117.44 26.13L117.37 26.07L115.30 26.05L115.31 26.06Q114.48 29.00 112.38 34.63L112.33 34.57L112.42 34.67Q111.01 30.90 107.93 27.63L107.89 27.59L108.02 27.72Q107.67 27.63 107.36 27.59L107.31 27.53L106.89 27.57L106.76 27.45Q105.86 26.58 104.07 24.98L104.07 24.98L104.25 25.16Q100.98 24.41 99.31 23.91L99.40 24.00L99.23 23.84Q110.12 31.45 109.74 41.77L109.71 41.74L109.70 41.73Q109.88 41.72 110.24 41.68L110.19 41.63L110.21 41.65Q110.66 41.70 110.85 41.70L110.77 41.62L110.71 41.56Q110.77 41.47 110.96 43.56L110.93 43.53L112.82 43.33L112.83 43.34Q115.60 40.70 117.84 34.95L117.84 34.95L117.74 34.84Q119.22 38.69 121.08 41.35L121.09 41.36L121.17 41.44Q121.33 41.25 121.59 41.27L121.72 41.40L121.69 41.37Q121.87 41.30 122.14 41.30L122.30 41.46L124.28 43.44Z"/><path fill="#333" d="M32.48 40.98L32.53 41.03L32.51 41.01Q31.19 39.30 29.89 36.22L29.93 36.25L27.75 31.07L27.77 31.09Q26.13 35.04 25.52 36.34L25.49 36.31L25.50 36.31Q24.08 39.28 22.48 41.18L22.54 41.23L22.50 41.20Q22.15 41.23 21.39 41.35L21.33 41.28L21.33 41.28Q21.25 33.78 15.42 27.84L15.44 27.86L15.52 27.94Q13.80 26.14 11.78 24.65L11.76 24.63L11.71 24.58Q13.58 25.16 15.45 25.47L15.56 25.57L15.50 25.52Q21.49 30.40 22.93 36.65L23.07 36.78L22.91 36.62Q23.83 34.80 25.01 31.61L25.00 31.59L25.00 31.60Q26.44 27.94 27.02 26.64L27.00 26.63L28.40 26.62L28.38 26.60Q29.34 28.39 30.52 31.67L30.49 31.64L30.35 31.49Q31.63 35.10 32.28 36.51L32.41 36.64L32.47 36.70Q34.23 30.35 39.71 25.78L39.61 25.69L39.67 25.74Q40.81 25.59 43.55 25.02L43.69 25.16L43.63 25.10Q35.02 31.15 33.84 41.12L33.79 41.07L33.09 40.90L33.09 40.90Q32.87 40.99 32.53 41.03ZM35.49 43.45L37.56 43.66L37.59 43.69Q37.10 41.98 37.10 40.46L37.22 40.58L37.28 40.63Q37.22 37.34 38.63 34.10L38.66 34.13L38.53 34.01Q40.51 29.47 44.62 26.39L44.74 26.51L44.74 26.51Q43.39 26.64 41.52 26.99L41.68 27.14L41.53 26.99Q43.63 25.48 44.93 24.57L44.77 24.41L42.27 24.88L42.28 24.88Q41.17 25.22 39.83 25.37L39.71 25.25L39.87 25.41Q34.55 29.49 32.61 34.52L32.67 34.58L32.76 34.67Q32.04 32.42 30.67 28.16L30.61 28.11L30.68 28.18Q30.33 28.17 30.07 28.17L30.06 28.16L29.48 28.11L29.61 28.24Q29.37 27.82 28.58 26.07L28.64 26.13L26.54 26.09L26.68 26.23Q25.73 29.05 23.64 34.69L23.48 34.53L23.45 34.50Q22.13 30.82 19.05 27.54L19.16 27.65L19.20 27.70Q18.82 27.58 18.51 27.54L18.54 27.57L18.04 27.53L18.03 27.51Q17.17 26.69 15.38 25.10L15.32 25.04L15.40 25.11Q12.17 24.40 10.50 23.91L10.44 23.85L10.54 23.95Q21.16 31.30 20.78 41.61L20.90 41.73L20.85 41.68Q21.13 41.77 21.49 41.73L21.34 41.58L21.36 41.60Q21.89 41.73 22.08 41.73L21.94 41.59L22.06 41.71Q21.92 41.42 22.11 43.51L22.20 43.60L24.18 43.49L24.21 43.52Q26.77 40.67 29.01 34.92L28.90 34.81L29.01 34.91Q30.49 38.76 32.36 41.43L32.22 41.28L32.36 41.43Q32.62 41.34 32.89 41.36L32.79 41.26L32.96 41.44Q33.13 41.36 33.39 41.36L33.34 41.31L35.43 43.39Z"/><path fill="#333" d="M79.21 15.82L79.28 15.89L79.18 15.80Q81.20 20.79 81.77 25.96L81.69 25.89L81.67 25.87Q85.42 21.77 91.32 16.94L91.41 17.03L91.41 17.03Q94.48 16.60 97.11 15.80L97.15 15.84L90.56 21.43L90.62 21.49Q87.18 24.41 84.33 27.27L84.23 27.17L84.29 27.23Q92.31 36.43 97.38 41.15L97.40 41.17L97.32 41.10Q94.17 40.12 91.85 39.96L91.83 39.95L91.92 40.04Q86.17 34.66 81.86 28.84L81.89 28.86L81.84 28.81Q81.93 35.41 80.06 40.74L80.09 40.77L79.99 40.67Q79.79 40.73 79.29 40.92L79.41 41.04L79.42 41.24L79.33 41.15Q79.18 41.23 76.63 42.15L76.57 42.08L76.67 42.18Q79.56 35.55 79.21 28.09L79.24 28.12L79.11 27.98Q78.76 20.64 75.22 14.13L75.42 14.32L75.95 14.59L76.20 14.73L76.23 14.71L76.25 14.73Q77.08 15.22 79.29 15.91ZM79.51 15.56L79.57 15.62L79.58 15.63Q77.31 15.07 74.68 13.54L74.60 13.46L74.58 13.45Q78.89 20.76 78.89 29.70L78.87 29.69L78.95 29.77Q78.86 36.69 75.89 42.74L76.03 42.88L77.93 41.88L77.98 41.93Q77.63 42.99 76.94 44.28L76.92 44.26L76.82 44.16Q79.07 43.37 81.02 42.95L81.03 42.97L81.17 42.88L81.11 42.82Q81.32 42.72 81.89 42.57L81.92 42.60L81.89 42.57Q83.67 36.77 83.78 31.97L83.70 31.89L83.79 31.98Q85.91 34.52 87.74 36.39L87.60 36.25L87.65 36.30Q88.77 37.34 91.78 40.31L91.75 40.28L91.95 40.48L91.90 40.44Q92.78 41.12 94.65 42.72L94.79 42.87L94.83 42.91Q98.67 43.59 102.14 45.31L102.16 45.32L102.11 45.27Q92.78 36.67 86.53 29.24L86.58 29.29L86.49 29.20Q90.90 24.93 99.66 16.33L99.74 16.41L99.78 16.45Q97.09 17.45 95.07 17.84L95.15 17.91L95.21 17.97Q96.31 16.86 98.63 14.84L98.74 14.96L98.72 14.93Q94.49 16.23 91.14 16.42L91.23 16.50L91.30 16.58Q88.24 18.65 83.37 23.34L83.40 23.37L83.35 23.32Q83.10 20.86 82.53 18.31L82.46 18.24L82.52 18.30Q81.36 18.17 80.37 17.83L80.34 17.79L80.34 17.80Q80.04 16.97 79.47 15.52Z"/></svg>
